<svg xmlns="http://www.w3.org/2000/svg" id="Ebene_2" data-name="Ebene 2" viewBox="0 0 583.9 176.1"><defs><style>      .cls-1 {        fill: #fff;        stroke-width: 0px;      }    </style></defs><g id="Logo"><g><path class="cls-1" d="M191.2,175.4c-3.4,1.7-7.6.2-9.2-3.3-15.4-34.5-20.3-58.1-23.9-80.7-4.9-31-1.3-75.9-3.9-77-2.8-1.2-11.3,5.6-40.8,46.7-27.7,38.5-34.9,43.8-42.9,40-8.9-4.2-5.7-15.6-2.3-33.4,3.9-20.4,6.8-32.3,3.7-34-3.8-2.2-21.2,17.5-30.1,28.6-12.2,15.2-28.3,38.3-29.4,39.9-2.2,3.1-6.6,3.8-9.6,1.5h0c-3-2.2-3.6-6.4-1.5-9.5,1.1-1.5,17.5-24.6,29.9-40.2,10-12.5,33.8-41.5,47.9-34.3,9.5,4.9,6.8,24.6,5.9,32-1.1,8.8-7,30.4-5.5,31.1,1.6.8,22.3-28.4,33.3-43.6C125.9,20.9,145.5-5.2,159.7.9c15,6.5,4.9,28.7,10.7,78.7,2.6,22.9,8.6,54.6,24,86.7,1.6,3.4.1,7.4-3.2,9h0Z"></path><g><g><g><path class="cls-1" d="M213.4,23.7l19.2,55.7,19.3-55.7h6.6v63.3h-5v-27.4l.4-27.6-19.4,55h-3.8l-19.3-54.8.4,27.2v27.6h-5V23.7h6.6Z"></path><path class="cls-1" d="M294.9,81.4c-2.7,4.3-6.8,6.5-12.4,6.5s-7.5-1.5-9.6-4.4c-2.2-3-3.3-7.3-3.3-13v-30.4h4.8v30.3c0,4.3.8,7.5,2.3,9.7,1.5,2.2,3.7,3.3,6.5,3.3,6.1,0,10-3,11.7-8.9v-34.4h4.9v47h-4.7v-5.6c0,0,0,0,0,0Z"></path><path class="cls-1" d="M316.1,87h-4.9V20.2h4.9v66.8Z"></path><path class="cls-1" d="M336.7,27.9v12h8v4.3h-8v31.2c0,2.6.4,4.5,1.1,5.8s2,1.9,3.9,1.9,1.9-.1,3.5-.4v4.3c-1,.5-2.5.7-4.6.7-5.6,0-8.5-3.9-8.7-11.7v-31.9h-7.3v-4.3h7.3v-12h4.8,0Z"></path><path class="cls-1" d="M353.8,26.7c0-1,.3-1.8.8-2.5.5-.7,1.3-1,2.4-1s1.8.4,2.4,1c.6.7.9,1.5.9,2.5s-.3,1.8-.9,2.5c-.6.7-1.4,1-2.4,1s-1.8-.3-2.4-1c-.5-.7-.8-1.5-.8-2.5ZM359.4,87.3h-4.9v-47h4.9v47Z"></path></g><g><path class="cls-1" d="M395.6,23.7l19.2,55.7,19.3-55.7h6.6v63.3h-5v-27.4l.4-27.6-19.4,55h-3.8l-19.3-54.8.4,27.2v27.6h-5V23.7h6.6Z"></path><path class="cls-1" d="M468.3,87.8c-5.5,0-9.9-1.8-13-5.4s-4.7-8.8-4.8-15.5v-5.7c0-6.9,1.5-12.3,4.5-16.2,3-3.9,7.2-5.9,12.4-5.9s9,1.7,11.7,5c2.7,3.3,4,8.4,4.1,15.3v4.5h-28v2.7c0,5.4,1.1,9.6,3.5,12.5,2.3,2.9,5.6,4.4,9.8,4.4s8.4-1.7,11.3-5.1l2.5,3.2c-3.1,4.2-7.7,6.3-14,6.3h0ZM467.5,43.6c-3.8,0-6.7,1.3-8.8,4s-3.2,6.6-3.4,11.8h23.1v-1.3c-.2-9.7-3.9-14.5-11-14.5h0Z"></path><path class="cls-1" d="M491.8,61.3c0-7.4,1.3-12.9,3.9-16.6,2.6-3.7,6.4-5.6,11.5-5.6s9.3,2.4,12,7.2v-26h4.8v66.8h-4.5l-.2-6c-2.6,4.6-6.7,6.9-12.1,6.9s-8.7-1.9-11.3-5.7c-2.6-3.8-3.9-9.1-4-16v-4.9h0ZM496.7,65.7c0,6,.9,10.5,2.7,13.3,1.8,2.8,4.7,4.3,8.6,4.3s8.8-2.4,11-7.3v-24.4c-2.2-5.2-5.8-7.9-11-7.9s-6.8,1.4-8.6,4.2-2.7,7.2-2.8,13v4.7h0Z"></path><path class="cls-1" d="M535.9,26.4c0-1,.3-1.8.8-2.5.5-.7,1.3-1,2.3-1s1.8.4,2.4,1c.6.7.8,1.5.8,2.5s-.3,1.8-.8,2.5c-.6.7-1.3,1-2.4,1s-1.8-.3-2.3-1-.8-1.5-.8-2.5ZM541.4,87h-4.9v-47h4.9v47Z"></path><path class="cls-1" d="M578.8,87c-.4-1.5-.7-3.7-.9-6.5-1.5,2.3-3.3,4.2-5.6,5.5s-4.8,1.9-7.4,1.9c-4.1,0-7.2-1.1-9.5-3.4s-3.4-5.6-3.4-9.8,1.6-8.3,4.7-11c3.1-2.7,7.5-4.1,13-4.1h8.1v-6.6c0-3.4-.8-5.8-2.5-7.2-1.7-1.5-4.1-2.2-7.3-2.2s-5.4.9-7.3,2.6c-1.9,1.7-2.9,4-2.9,6.7h-4.8c0-3.9,1.5-7.2,4.3-9.8,2.9-2.7,6.5-4,10.9-4s8.3,1.2,10.7,3.6c2.4,2.4,3.7,5.8,3.7,10.4v23.1c0,4.6.4,8.1,1.3,10.3v.5h-5.1ZM565.5,83.2c2.8,0,5.3-.7,7.5-2.2s3.8-3.4,4.8-5.9v-11.4h-7.7c-4.4,0-7.7,1-10,2.9-2.2,1.9-3.3,4.5-3.3,7.7,0,6,2.9,8.9,8.6,8.9h0Z"></path></g></g><g><path class="cls-1" d="M206.8,134.1v-28.8h8.2c2.6,0,4.6.6,5.9,1.9,1.3,1.3,2,3.2,2,5.8s-.3,2.5-1,3.6-1.6,1.8-2.7,2.4c1.3.4,2.4,1.2,3.1,2.4.8,1.2,1.2,2.7,1.2,4.4,0,2.6-.7,4.6-2.1,6.1-1.4,1.5-3.4,2.2-6.1,2.2h-8.5ZM210.4,117.6h4.6c1.2,0,2.3-.4,3-1.3s1.2-2,1.2-3.4-.4-2.7-1.1-3.5-1.8-1.1-3.2-1.1h-4.6v9.2h0ZM210.4,120.7v10.3h4.9c1.4,0,2.5-.4,3.3-1.4s1.2-2.2,1.2-3.8c0-3.5-1.5-5.2-4.4-5.2,0,0-5,0-5,0Z"></path><path class="cls-1" d="M236.2,134.5c-2.7,0-4.7-.8-6.1-2.4-1.4-1.6-2.1-3.9-2.2-7v-2.6c0-3.2.7-5.7,2.1-7.5s3.3-2.7,5.8-2.7,4.4.8,5.6,2.4,1.9,4.1,1.9,7.4v2.3h-11.9v.5c0,2.3.4,4,1.3,5,.9,1,2.1,1.6,3.7,1.6s1.9-.2,2.7-.6c.8-.4,1.5-1,2.2-1.9l1.8,2.2c-1.5,2.1-3.8,3.2-6.9,3.2h0ZM235.9,115.3c-1.4,0-2.5.5-3.2,1.5s-1.1,2.5-1.2,4.6h8.4v-.5c0-2-.5-3.5-1.1-4.3s-1.6-1.3-2.9-1.3h0Z"></path><path class="cls-1" d="M256.6,116c-.5,0-1-.1-1.6-.1-1.8,0-3,1-3.8,2.9v15.3h-3.5v-21.4h3.4v2.2c1-1.7,2.3-2.6,4-2.6s1,0,1.4.3v3.4s0,0,0,0Z"></path><path class="cls-1" d="M271.3,132.2c-1.2,1.5-2.9,2.3-5.1,2.3s-3.4-.7-4.4-2c-1-1.3-1.5-3.3-1.5-5.8v-13.9h3.5v13.7c0,3.3,1,5,3,5s3.6-.9,4.4-2.8v-15.8h3.5v21.4h-3.3v-1.9c0,0,0,0,0,0Z"></path><path class="cls-1" d="M281.7,134.1v-18.6h-2.8v-2.8h2.8v-2.5c0-2.2.6-3.9,1.6-5.1,1.1-1.2,2.6-1.8,4.5-1.8s1.4.1,2.1.3l-.2,2.9c-.5-.1-1-.2-1.6-.2-2,0-3,1.4-3,4.3v2h3.7v2.8h-3.7v18.6h-3.5,0Z"></path><path class="cls-1" d="M303.6,128.6c0-.8-.3-1.4-.9-1.9s-1.7-1.2-3.3-1.9c-1.9-.8-3.2-1.4-4-2-.8-.6-1.4-1.2-1.7-1.9-.4-.7-.6-1.5-.6-2.5,0-1.7.6-3.2,1.9-4.3,1.3-1.2,2.9-1.7,4.9-1.7s3.8.6,5,1.8c1.3,1.2,1.9,2.8,1.9,4.7h-3.5c0-1-.3-1.8-1-2.5s-1.5-1-2.5-1-1.8.3-2.4.8c-.6.5-.9,1.2-.9,2.1s.2,1.3.6,1.7,1.5,1,3.1,1.7c2.6,1,4.4,2,5.3,3s1.4,2.2,1.4,3.7-.6,3.4-1.9,4.5-3,1.7-5.1,1.7-4-.6-5.4-1.9-2.1-2.9-2.1-4.9h3.5c0,1.2.4,2.1,1.1,2.8.7.7,1.6,1,2.9,1s2-.3,2.6-.8.9-1.2.9-2.1h0Z"></path><path class="cls-1" d="M327.4,124.4c0,3.3-.6,5.8-1.8,7.5-1.2,1.7-2.9,2.5-5.2,2.5s-4-1-5.1-2.9l-.2,2.5h-3.2v-30.3h3.5v11.3c1.1-1.8,2.8-2.8,4.9-2.8s4.1.8,5.3,2.5c1.2,1.7,1.8,4.2,1.8,7.5v2.1h0ZM323.9,122.4c0-2.5-.4-4.3-1.1-5.4-.7-1.1-1.9-1.6-3.4-1.6s-3.1,1-4,2.9v10.2c.9,1.9,2.2,2.9,4.1,2.9s2.7-.6,3.4-1.7c.7-1.1,1-2.8,1-5.2v-2.2h0Z"></path><path class="cls-1" d="M336.1,107.1c0,.6-.2,1.1-.5,1.5-.3.4-.8.6-1.5.6s-1.1-.2-1.5-.6c-.3-.4-.5-.9-.5-1.5s.2-1.1.5-1.5.8-.6,1.5-.6,1.2.2,1.5.6c.3.4.5.9.5,1.5ZM335.9,134.1h-3.5v-21.4h3.5v21.4Z"></path><path class="cls-1" d="M345.4,134.1h-3.5v-30.3h3.5v30.3Z"></path><path class="cls-1" d="M350.4,122.4c0-3.3.6-5.8,1.9-7.5s3-2.6,5.3-2.6,3.6.8,4.8,2.5v-11.1h3.5v30.4h-3.2l-.2-2.3c-1.1,1.8-2.8,2.7-4.9,2.7s-4-.9-5.2-2.6c-1.3-1.7-1.9-4.2-1.9-7.3v-2.2h0ZM353.9,124.4c0,2.4.4,4.2,1.1,5.3.7,1.1,1.9,1.7,3.5,1.7s3-.9,3.9-2.6v-10.8c-.9-1.7-2.2-2.6-3.9-2.6s-2.8.6-3.5,1.7c-.7,1.1-1.1,2.8-1.1,5.2v2.1h0Z"></path><path class="cls-1" d="M379.1,134.5c-2.7,0-4.7-.8-6.1-2.4-1.4-1.6-2.1-3.9-2.2-7v-2.6c0-3.2.7-5.7,2.1-7.5s3.3-2.7,5.8-2.7,4.4.8,5.6,2.4,1.9,4.1,1.9,7.4v2.3h-11.9v.5c0,2.3.4,4,1.3,5,.9,1,2.1,1.6,3.7,1.6s1.9-.2,2.7-.6c.8-.4,1.5-1,2.2-1.9l1.8,2.2c-1.5,2.1-3.8,3.2-6.9,3.2h0ZM378.7,115.3c-1.5,0-2.5.5-3.2,1.5s-1.1,2.5-1.2,4.6h8.4v-.5c0-2-.5-3.5-1.1-4.3s-1.6-1.3-2.9-1.3Z"></path><path class="cls-1" d="M393.9,112.7v2.3c1.5-1.8,3.2-2.7,5.3-2.7,3.8,0,5.7,2.5,5.8,7.6v14.2h-3.5v-14.1c0-1.7-.3-2.9-.8-3.6-.6-.7-1.4-1.1-2.5-1.1s-1.6.3-2.3.9-1.2,1.3-1.7,2.3v15.5h-3.5v-21.4h3.3Z"></path><path class="cls-1" d="M409.7,122.4c0-3.3.6-5.8,1.9-7.5s3-2.6,5.3-2.6,3.6.8,4.8,2.5v-11.1h3.5v30.4h-3.2l-.2-2.3c-1.1,1.8-2.8,2.7-4.9,2.7s-4-.9-5.2-2.6c-1.3-1.7-1.9-4.2-1.9-7.3v-2.2h0ZM413.2,124.4c0,2.4.4,4.2,1.1,5.3.7,1.1,1.9,1.7,3.5,1.7s3-.9,3.9-2.6v-10.8c-.9-1.7-2.2-2.6-3.9-2.6s-2.8.6-3.5,1.7c-.7,1.1-1.1,2.8-1.1,5.2v2.1h0Z"></path><path class="cls-1" d="M438.4,134.5c-2.7,0-4.7-.8-6.1-2.4-1.4-1.6-2.1-3.9-2.2-7v-2.6c0-3.2.7-5.7,2.1-7.5s3.3-2.7,5.8-2.7,4.4.8,5.6,2.4,1.9,4.1,1.9,7.4v2.3h-11.9v.5c0,2.3.4,4,1.3,5,.9,1,2.1,1.6,3.7,1.6s1.9-.2,2.7-.6c.8-.4,1.5-1,2.2-1.9l1.8,2.2c-1.5,2.1-3.8,3.2-6.9,3.2h0ZM438,115.3c-1.5,0-2.5.5-3.2,1.5s-1.1,2.5-1.2,4.6h8.4v-.5c0-2-.5-3.5-1.1-4.3s-1.6-1.3-2.9-1.3Z"></path><path class="cls-1" d="M472.5,126.8c0-1.4-.4-2.5-1.2-3.3s-2.2-1.5-4.2-2.2-3.6-1.5-4.6-2.3-1.9-1.7-2.4-2.7-.8-2.2-.8-3.5c0-2.3.8-4.2,2.3-5.6,1.5-1.5,3.5-2.2,6-2.2s3.2.4,4.5,1.1,2.3,1.8,3,3.1,1.1,2.8,1.1,4.4h-3.6c0-1.8-.4-3.2-1.3-4.1-.9-1-2.1-1.5-3.7-1.5s-2.6.4-3.4,1.2-1.2,2-1.2,3.4.4,2.2,1.3,3.1,2.2,1.6,4,2.2c2.8.9,4.9,2.1,6.1,3.5s1.8,3.2,1.8,5.4-.8,4.2-2.3,5.6c-1.5,1.4-3.6,2.1-6.2,2.1s-3.2-.4-4.6-1.1c-1.4-.7-2.5-1.8-3.3-3.1s-1.2-2.8-1.2-4.6h3.6c0,1.8.5,3.2,1.5,4.1,1,1,2.4,1.5,4.1,1.5s2.8-.4,3.6-1.2c.8-.8,1.2-1.9,1.2-3.3h0Z"></path><path class="cls-1" d="M488.1,131.5c1.2,0,2.1-.4,2.8-1.1s1.1-1.7,1.1-3.1h3.3c0,2-.8,3.8-2.2,5.1s-3.1,2-5,2-4.7-.8-6.1-2.5-2.1-4.2-2.1-7.4v-2.3c0-3.2.7-5.7,2.1-7.4s3.4-2.5,6-2.5,3.9.7,5.2,2.1c1.3,1.4,2,3.3,2,5.7h-3.3c0-1.6-.5-2.8-1.1-3.6s-1.6-1.2-2.8-1.2-2.7.5-3.5,1.5-1.1,2.7-1.2,5v2.7c0,2.5.4,4.3,1.1,5.3.7,1,1.9,1.6,3.5,1.6h0Z"></path><path class="cls-1" d="M503.1,114.9c1.3-1.7,3-2.6,5.1-2.6,3.8,0,5.7,2.5,5.7,7.6v14.2h-3.5v-14.1c0-1.7-.3-2.9-.8-3.6-.6-.7-1.4-1.1-2.5-1.1s-1.6.3-2.3.9-1.2,1.3-1.7,2.3v15.5h-3.5v-30.3h3.5v11.2h0Z"></path><path class="cls-1" d="M530.3,132.2c-1.2,1.5-2.8,2.3-5.1,2.3s-3.4-.7-4.4-2-1.5-3.3-1.5-5.8v-13.9h3.5v13.7c0,3.3,1,5,3,5s3.6-.9,4.4-2.8v-15.8h3.5v21.4h-3.3v-1.9c0,0,0,0,0,0Z"></path><path class="cls-1" d="M543,134.1h-3.5v-30.3h3.5v30.3Z"></path><path class="cls-1" d="M556.4,134.5c-2.7,0-4.7-.8-6.1-2.4-1.4-1.6-2.2-3.9-2.2-7v-2.6c0-3.2.7-5.7,2.1-7.5s3.3-2.7,5.8-2.7,4.4.8,5.6,2.4,1.9,4.1,1.9,7.4v2.3h-11.9v.5c0,2.3.4,4,1.3,5,.9,1,2.1,1.6,3.7,1.6s1.9-.2,2.7-.6c.8-.4,1.5-1,2.2-1.9l1.8,2.2c-1.5,2.1-3.8,3.2-6.9,3.2h0ZM556,115.3c-1.5,0-2.5.5-3.2,1.5-.7,1-1.1,2.5-1.2,4.6h8.4v-.5c0-2-.5-3.5-1.1-4.3s-1.6-1.3-2.9-1.3h0Z"></path><path class="cls-1" d="M571.2,112.7v2.3c1.5-1.8,3.2-2.7,5.3-2.7,3.8,0,5.7,2.5,5.8,7.6v14.2h-3.5v-14.1c0-1.7-.3-2.9-.8-3.6-.6-.7-1.4-1.1-2.5-1.1s-1.7.3-2.3.9-1.2,1.3-1.7,2.3v15.5h-3.5v-21.4h3.3Z"></path></g></g></g></g></svg>